<svg width="1185" height="284" viewBox="0 0 1185 284" fill="none" xmlns="http://www.w3.org/2000/svg">
<g clip-path="url(#clip0_4_53)">
<g clip-path="url(#clip1_4_53)">
<path d="M213 106.5C213 154.98 148.102 241.289 119.646 276.9C112.823 285.387 100.177 285.387 93.3539 276.9C64.8984 241.289 0 154.98 0 106.5C0 47.7031 47.7031 0 106.5 0C165.297 0 213 47.7031 213 106.5Z" fill="white"/>
<g clip-path="url(#clip2_4_53)">
<path d="M87.75 65.7191C87.75 55.9668 96.0195 39 106 39C116.266 39 124.25 55.9668 124.25 65.7191V84.625L174.951 118.416C177.489 120.098 179 122.95 179 126.001V142.17C179 145.278 175.949 147.473 172.983 146.504L124.25 130.25V153.062L140.675 165.381C141.816 166.237 142.5 167.605 142.5 169.031V181.008C142.5 183.232 140.704 185 138.508 185C138.137 185 137.766 184.943 137.396 184.857L106 175.875L74.6043 184.857C74.2336 184.971 73.8629 185 73.4922 185C71.268 185 69.5 183.204 69.5 181.008V169.031C69.5 167.605 70.1844 166.237 71.325 165.381L87.75 153.062V130.25L39.0168 146.504C36.0512 147.473 33 145.278 33 142.17V126.001C33 122.95 34.5113 120.098 37.0492 118.416L87.75 84.625V65.7191Z" fill="black"/>
</g>
</g>
<path d="M1153.9 186.568C1147.86 186.568 1142.58 184.902 1138.07 181.57C1133.56 178.237 1130.07 173.647 1127.59 167.799C1125.14 161.918 1123.91 155.172 1123.91 147.56C1123.91 140.013 1125.15 133.315 1127.64 127.467C1130.15 121.587 1133.66 116.98 1138.17 113.648C1142.68 110.283 1147.94 108.6 1153.95 108.6C1158.26 108.6 1162 109.433 1165.17 111.099C1168.38 112.733 1171.05 114.906 1173.21 117.617C1175.4 120.329 1177.07 123.302 1178.21 126.536H1178.8V84.6364H1184.73V185H1178.94V168.583H1178.21C1177 171.817 1175.32 174.807 1173.16 177.551C1171.01 180.263 1168.33 182.452 1165.12 184.118C1161.92 185.751 1158.18 186.568 1153.9 186.568ZM1154.44 181.031C1159.54 181.031 1163.9 179.577 1167.53 176.669C1171.18 173.729 1173.98 169.743 1175.91 164.712C1177.87 159.648 1178.85 153.914 1178.85 147.511C1178.85 141.107 1177.87 135.406 1175.91 130.408C1173.98 125.376 1171.18 121.423 1167.53 118.548C1163.9 115.641 1159.54 114.187 1154.44 114.187C1149.28 114.187 1144.85 115.657 1141.16 118.597C1137.5 121.505 1134.69 125.474 1132.73 130.506C1130.8 135.537 1129.84 141.205 1129.84 147.511C1129.84 153.816 1130.8 159.501 1132.73 164.565C1134.69 169.629 1137.5 173.647 1141.16 176.62C1144.85 179.56 1149.28 181.031 1154.44 181.031Z" fill="white"/>
<path d="M1079.18 186.617C1074.84 186.617 1070.85 185.751 1067.23 184.02C1063.63 182.288 1060.74 179.756 1058.55 176.424C1056.4 173.092 1055.32 169.04 1055.32 164.271C1055.32 161.134 1055.87 158.374 1056.98 155.989C1058.09 153.604 1059.81 151.545 1062.13 149.814C1064.45 148.082 1067.42 146.661 1071.05 145.55C1074.67 144.407 1079 143.525 1084.03 142.904C1087.86 142.447 1091.27 142.006 1094.28 141.581C1097.28 141.124 1099.63 140.421 1101.33 139.474C1103.07 138.526 1103.93 137.089 1103.93 135.161V132.025C1103.93 126.536 1102.2 122.175 1098.74 118.94C1095.27 115.706 1090.5 114.089 1084.43 114.089C1079.04 114.089 1074.49 115.281 1070.8 117.666C1067.14 120.018 1064.58 123.057 1063.11 126.781L1057.47 124.674C1058.91 121.08 1060.99 118.091 1063.7 115.706C1066.44 113.321 1069.58 111.54 1073.11 110.364C1076.67 109.188 1080.39 108.6 1084.28 108.6C1087.64 108.6 1090.85 109.074 1093.88 110.021C1096.96 110.969 1099.68 112.406 1102.07 114.334C1104.49 116.261 1106.4 118.728 1107.8 121.734C1109.21 124.707 1109.91 128.268 1109.91 132.417V185H1103.93V171.425H1103.49C1102.18 174.235 1100.39 176.8 1098.1 179.119C1095.85 181.406 1093.12 183.236 1089.92 184.608C1086.75 185.947 1083.17 186.617 1079.18 186.617ZM1079.77 181.079C1084.48 181.079 1088.64 179.936 1092.27 177.649C1095.93 175.33 1098.79 172.16 1100.84 168.142C1102.9 164.124 1103.93 159.566 1103.93 154.469V143.394C1103.18 144.048 1102.09 144.636 1100.65 145.158C1099.24 145.648 1097.64 146.089 1095.85 146.481C1094.08 146.841 1092.22 147.168 1090.26 147.462C1088.33 147.723 1086.45 147.968 1084.62 148.197C1079.13 148.85 1074.66 149.863 1071.2 151.235C1067.76 152.575 1065.25 154.339 1063.65 156.528C1062.08 158.717 1061.3 161.363 1061.3 164.467C1061.3 169.596 1063.06 173.647 1066.59 176.62C1070.12 179.593 1074.51 181.079 1079.77 181.079Z" fill="white"/>
<path d="M1011.57 186.568C1004.78 186.568 998.862 184.886 993.831 181.521C988.8 178.155 984.912 173.549 982.168 167.701C979.423 161.853 978.051 155.188 978.051 147.707C978.051 140.192 979.423 133.495 982.168 127.614C984.945 121.734 988.751 117.094 993.586 113.697C998.421 110.299 1003.94 108.6 1010.15 108.6C1014.36 108.6 1018.35 109.45 1022.11 111.148C1025.9 112.815 1029.23 115.232 1032.1 118.401C1035.01 121.57 1037.28 125.393 1038.92 129.869C1040.58 134.344 1041.42 139.376 1041.42 144.962V148.687H981.825V143.247H1035.44C1035.44 137.791 1034.33 132.874 1032.1 128.496C1029.88 124.119 1026.86 120.639 1023.04 118.058C1019.22 115.477 1014.92 114.187 1010.15 114.187C1005.15 114.187 1000.69 115.592 996.771 118.401C992.884 121.178 989.796 124.935 987.509 129.673C985.255 134.41 984.079 139.702 983.981 145.55V148.001C983.981 154.273 985.075 159.909 987.264 164.908C989.486 169.874 992.655 173.81 996.771 176.718C1000.89 179.593 1005.82 181.03 1011.57 181.03C1015.69 181.03 1019.2 180.344 1022.11 178.972C1025.05 177.567 1027.45 175.869 1029.31 173.876C1031.17 171.883 1032.58 169.955 1033.53 168.093L1038.97 170.298C1037.82 172.814 1036.04 175.329 1033.62 177.845C1031.24 180.328 1028.2 182.403 1024.51 184.069C1020.85 185.735 1016.54 186.568 1011.57 186.568Z" fill="white"/>
<path d="M912.958 136.19V185H906.98V84.6364H912.958V121.636H913.547C915.311 117.715 918.12 114.595 921.975 112.276C925.863 109.923 930.519 108.747 935.942 108.747C941.006 108.747 945.466 109.825 949.321 111.982C953.176 114.105 956.181 117.16 958.338 121.146C960.527 125.099 961.621 129.836 961.621 135.357V185H955.691V135.602C955.691 129.166 953.78 124.004 949.958 120.116C946.135 116.229 941.088 114.285 934.815 114.285C930.6 114.285 926.843 115.2 923.544 117.029C920.244 118.859 917.647 121.423 915.752 124.723C913.89 127.99 912.958 131.812 912.958 136.19Z" fill="white"/>
<path d="M859.947 185V109.727H865.778V121.489H866.317C867.951 117.633 870.711 114.546 874.599 112.227C878.487 109.874 882.914 108.698 887.88 108.698C888.402 108.698 888.925 108.698 889.448 108.698C889.971 108.698 890.461 108.714 890.918 108.747V114.775C890.526 114.742 890.052 114.693 889.497 114.628C888.974 114.53 888.321 114.481 887.537 114.481C883.355 114.481 879.631 115.379 876.363 117.176C873.129 118.973 870.581 121.456 868.719 124.625C866.856 127.761 865.925 131.355 865.925 135.406V185H859.947Z" fill="white"/>
<path d="M809.52 186.568C802.724 186.568 796.811 184.886 791.78 181.521C786.748 178.155 782.861 173.549 780.116 167.701C777.372 161.853 776 155.188 776 147.707C776 140.192 777.372 133.495 780.116 127.614C782.893 121.734 786.699 117.094 791.535 113.697C796.37 110.299 801.891 108.6 808.098 108.6C812.313 108.6 816.299 109.45 820.056 111.148C823.846 112.815 827.178 115.232 830.053 118.401C832.961 121.57 835.231 125.393 836.865 129.869C838.531 134.344 839.364 139.376 839.364 144.962V148.687H779.773V143.247H833.385C833.385 137.791 832.275 132.874 830.053 128.496C827.831 124.119 824.809 120.639 820.987 118.058C817.164 115.477 812.868 114.187 808.098 114.187C803.1 114.187 798.64 115.592 794.72 118.401C790.832 121.178 787.745 124.935 785.458 129.673C783.204 134.41 782.027 139.702 781.929 145.55V148.001C781.929 154.273 783.024 159.909 785.213 164.908C787.434 169.874 790.603 173.81 794.72 176.718C798.836 179.593 803.77 181.03 809.52 181.03C813.636 181.03 817.148 180.344 820.056 178.972C822.996 177.567 825.397 175.869 827.26 173.876C829.122 171.883 830.527 169.955 831.474 168.093L836.914 170.298C835.77 172.814 833.99 175.329 831.572 177.845C829.187 180.328 826.149 182.403 822.457 184.069C818.798 185.735 814.486 186.568 809.52 186.568Z" fill="white"/>
<path d="M768.317 109.727L741.119 185H734.356L707.158 109.727H713.578L737.493 177.306H737.983L761.897 109.727H768.317Z" fill="white"/>
<path d="M696.972 134.818C696.972 145.175 695.175 154.224 691.581 161.967C687.987 169.678 682.989 175.673 676.585 179.952C670.215 184.232 662.864 186.372 654.533 186.372C646.169 186.372 638.786 184.232 632.382 179.952C626.012 175.64 621.029 169.629 617.436 161.918C613.842 154.175 612.045 145.142 612.045 134.818C612.045 124.462 613.842 115.428 617.436 107.718C621.062 100.008 626.061 94.0127 632.431 89.7329C638.802 85.4204 646.169 83.2642 654.533 83.2642C662.864 83.2642 670.215 85.4041 676.585 89.6839C682.989 93.9637 687.987 99.9751 691.581 107.718C695.175 115.428 696.972 124.462 696.972 134.818ZM690.993 134.818C690.993 125.507 689.425 117.437 686.289 110.609C683.185 103.781 678.889 98.5049 673.4 94.7805C667.911 91.0234 661.622 89.1448 654.533 89.1448C647.443 89.1448 641.154 91.0071 635.666 94.7315C630.177 98.4232 625.865 103.7 622.728 110.56C619.624 117.388 618.073 125.474 618.073 134.818C618.073 144.064 619.608 152.117 622.679 158.978C625.783 165.806 630.079 171.099 635.568 174.856C641.056 178.613 647.378 180.491 654.533 180.491C661.622 180.491 667.911 178.629 673.4 174.905C678.889 171.148 683.185 165.855 686.289 159.027C689.425 152.199 690.993 144.129 690.993 134.818Z" fill="white"/>
<path d="M563.934 186.519C556.517 186.519 550.13 184.935 544.772 181.766C539.447 178.564 535.331 174.072 532.423 168.289C529.548 162.474 528.11 155.662 528.11 147.854C528.11 140.143 529.548 133.348 532.423 127.467C535.331 121.587 539.382 116.996 544.576 113.697C549.804 110.397 555.913 108.747 562.904 108.747C567.152 108.747 571.268 109.45 575.254 110.854C579.24 112.259 582.817 114.465 585.986 117.47C589.155 120.476 591.654 124.38 593.484 129.183C595.313 133.952 596.228 139.751 596.228 146.58V151.774H536.392V140.797H581.87C581.87 136.942 581.085 133.528 579.517 130.555C577.949 127.549 575.744 125.18 572.902 123.449C570.092 121.717 566.792 120.852 563.002 120.852C558.886 120.852 555.292 121.864 552.221 123.89C549.183 125.883 546.831 128.496 545.164 131.731C543.531 134.933 542.714 138.412 542.714 142.169V150.745C542.714 155.776 543.596 160.056 545.36 163.585C547.157 167.113 549.657 169.808 552.858 171.67C556.06 173.5 559.801 174.415 564.081 174.415C566.858 174.415 569.389 174.023 571.676 173.239C573.963 172.422 575.94 171.213 577.606 169.612C579.272 168.011 580.546 166.035 581.429 163.683L595.297 166.182C594.186 170.266 592.193 173.843 589.318 176.914C586.476 179.952 582.899 182.321 578.586 184.02C574.306 185.686 569.422 186.519 563.934 186.519Z" fill="white"/>
<path d="M467.808 140.307V185H453.155V109.727H467.22V121.979H468.151C469.883 117.993 472.594 114.791 476.286 112.374C480.01 109.956 484.699 108.747 490.351 108.747C495.48 108.747 499.972 109.825 503.827 111.982C507.682 114.105 510.672 117.274 512.795 121.489C514.919 125.703 515.981 130.914 515.981 137.121V185H501.328V138.886C501.328 133.43 499.907 129.166 497.064 126.095C494.222 122.992 490.318 121.44 485.352 121.44C481.954 121.44 478.932 122.175 476.286 123.645C473.672 125.115 471.598 127.271 470.062 130.114C468.559 132.923 467.808 136.321 467.808 140.307Z" fill="white"/>
<path d="M400.632 186.666C395.863 186.666 391.55 185.784 387.695 184.02C383.84 182.223 380.785 179.626 378.531 176.228C376.309 172.83 375.198 168.665 375.198 163.732C375.198 159.484 376.015 155.989 377.649 153.244C379.282 150.5 381.488 148.327 384.265 146.727C387.042 145.126 390.145 143.917 393.576 143.1C397.006 142.283 400.502 141.663 404.063 141.238C408.571 140.715 412.23 140.291 415.04 139.964C417.85 139.604 419.892 139.033 421.166 138.249C422.44 137.465 423.077 136.19 423.077 134.426V134.083C423.077 129.803 421.868 126.487 419.451 124.135C417.066 121.783 413.505 120.607 408.767 120.607C403.834 120.607 399.946 121.701 397.104 123.89C394.294 126.046 392.35 128.447 391.272 131.094L377.502 127.957C379.135 123.384 381.52 119.692 384.657 116.882C387.826 114.04 391.468 111.982 395.585 110.707C399.701 109.401 404.03 108.747 408.571 108.747C411.577 108.747 414.762 109.107 418.127 109.825C421.525 110.511 424.694 111.786 427.635 113.648C430.608 115.51 433.042 118.173 434.936 121.636C436.831 125.066 437.779 129.526 437.779 135.014V185H423.469V174.709H422.881C421.934 176.604 420.512 178.466 418.618 180.295C416.723 182.125 414.289 183.644 411.316 184.853C408.343 186.062 404.782 186.666 400.632 186.666ZM403.818 174.905C407.869 174.905 411.332 174.104 414.207 172.504C417.115 170.903 419.32 168.812 420.823 166.231C422.358 163.617 423.126 160.824 423.126 157.851V148.148C422.603 148.67 421.591 149.161 420.088 149.618C418.618 150.043 416.935 150.418 415.04 150.745C413.145 151.039 411.299 151.317 409.502 151.578C407.706 151.807 406.203 152.003 404.994 152.166C402.152 152.526 399.554 153.13 397.202 153.979C394.882 154.829 393.02 156.054 391.615 157.655C390.243 159.223 389.557 161.314 389.557 163.928C389.557 167.554 390.897 170.298 393.576 172.161C396.255 173.99 399.669 174.905 403.818 174.905Z" fill="white"/>
<path d="M359.014 84.6364V185H344.362V84.6364H359.014Z" fill="white"/>
<path d="M260.026 185V84.6364H295.8C303.609 84.6364 310.077 86.0575 315.207 88.8998C320.336 91.7422 324.175 95.63 326.723 100.563C329.271 105.464 330.545 110.985 330.545 117.127C330.545 123.302 329.255 128.856 326.674 133.789C324.126 138.69 320.271 142.577 315.109 145.452C309.979 148.295 303.527 149.716 295.751 149.716H271.151V136.876H294.379C299.312 136.876 303.315 136.027 306.386 134.328C309.457 132.597 311.711 130.244 313.148 127.271C314.586 124.298 315.305 120.917 315.305 117.127C315.305 113.337 314.586 109.972 313.148 107.032C311.711 104.092 309.44 101.788 306.337 100.122C303.266 98.456 299.214 97.6229 294.183 97.6229H275.169V185H260.026Z" fill="white"/>
</g>
<defs>
<clipPath id="clip0_4_53">
<rect width="1185" height="284" fill="white"/>
</clipPath>
<clipPath id="clip1_4_53">
<rect width="213" height="284" fill="white"/>
</clipPath>
<clipPath id="clip2_4_53">
<rect width="146" height="146" fill="white" transform="translate(33 39)"/>
</clipPath>
</defs>
</svg>
